<?xml version="1.0" encoding="utf-8"?>
<!-- Generator: Adobe Illustrator 26.0.1, SVG Export Plug-In . SVG Version: 6.00 Build 0)  -->
<svg version="1.1" id="Layer_1" xmlns="http://www.w3.org/2000/svg" xmlns:xlink="http://www.w3.org/1999/xlink" x="0px" y="0px"
	 viewBox="0 0 510 284" style="enable-background:new 0 0 510 284;" xml:space="preserve">
<style type="text/css">
	.st0{fill-rule:evenodd;clip-rule:evenodd;fill:#00BFA5;}
</style>
<path d="M41.7,230.9c0.1,2.6-0.3,5.1-1.2,7.5c-0.6,1.9-1.7,3.5-3.2,4.8c-1.2,1.1-2.6,1.9-4.1,2.4c-1.4,0.5-2.8,0.8-4.2,0.8
	c-1.6,0-3.2-0.3-4.8-1.1c-1.6-0.7-3-1.8-4.1-3.1c-1.4-1.6-2.4-3.6-3-5.6c-0.8-2.7-1.1-5.5-1.1-8.3V228l-11,2.7v0.3
	c0,7.5,2.2,13.7,6.4,18.3s10.2,7.1,17.8,7.1s13.5-2.4,17.8-7s6.3-11.1,6.3-19.3v-47.5H41.8L41.7,230.9L41.7,230.9z"/>
<path d="M97.1,230.2c0,2.4-0.4,4.9-1.4,7.1c-0.7,1.9-1.9,3.6-3.5,5.1c-1.4,1.2-3,2.3-4.7,2.9c-1.6,0.6-3.3,1-5,1.1
	c-2.9,0.1-5.8-1-7.9-3.1c-2-2-3-5.6-3-10.4v-29.1H61v29.9c0,7.5,1.8,13.2,5.3,17c3.5,3.7,8.4,5.6,14.8,5.6c6.5,0,11.9-2.8,16-8.4
	v7.5h10.6v-51.7H97.1V230.2L97.1,230.2z"/>
<path d="M142.4,203.1c-3.4,0-6.7,0.8-9.7,2.4c-2.5,1.3-4.7,3.2-6.4,5.4v-7.1h-10.6v74.5h10.6v-30.2c1.6,2.4,3.8,4.2,6.3,5.6
	c3,1.6,6.4,2.4,9.8,2.4c6.4,0.1,12.4-2.8,16.5-7.6c4.5-5,6.7-11.4,6.7-19c0-7.5-2.3-13.9-6.7-18.9
	C154.8,205.8,148.7,203,142.4,203.1z M155,229.7c0.1,4.3-1.3,8.6-4.1,11.9c-2.5,3.2-6.3,4.9-10.3,4.9c-3.9,0-7.3-1.7-10.1-4.9
	c-2.8-3.3-4.4-7.5-4.3-11.8c-0.1-4.3,1.5-8.5,4.2-11.8c2.8-3.3,6.2-4.9,10.1-4.9c4-0.1,7.8,1.7,10.3,4.9
	C153.7,221.1,155,225.4,155,229.7z"/>
<path d="M271.8,211.9c-1.5-1.9-3.4-3.6-5.5-5c-2-1.3-4.2-2.3-6.6-2.9c-2.3-0.6-4.7-0.9-7.1-0.9c-7.5,0-13.8,2.5-18.6,7.5
	s-7.1,11.4-7.1,19.1c-0.1,4.6,1,9.2,3,13.4c2,4,5.2,7.3,9,9.7c4.2,2.4,9,3.7,13.9,3.6c2.6,0,5.1-0.3,7.6-1.1c2.1-0.6,4.1-1.5,6-2.7
	c1.7-1.1,3.2-2.4,4.5-3.8c1.2-1.3,2.4-2.8,3.2-4.3c0.8-1.4,1.5-2.8,2.1-4.4l0.2-0.4l-10.1-2.7l-0.2,0.3c-1.1,2.6-2.9,4.9-5.2,6.7
	c-2.4,1.7-5.2,2.6-8,2.5c-4.5,0-8.1-1.3-10.9-4c-2.7-2.5-4.4-5.9-4.7-9.6h39l0.1-0.3c0.2-1.2,0.3-2.4,0.3-3.6c0-3.2-0.5-6.6-1.4-9.7
	C274.7,216.6,273.4,214.2,271.8,211.9z M238.1,224c1.9-7.6,7-11.5,15-11.5c3.3-0.1,6.5,1.1,8.9,3.3c2.3,2.1,3.6,5,3.9,8.1L238.1,224
	z"/>
<path d="M384.8,192.7c-3.2-3.4-7.1-6.2-11.3-7.9c-9.3-3.9-19.9-3.9-29.2,0c-4.3,1.9-8.1,4.5-11.2,7.9c-3.1,3.5-5.5,7.5-7.1,11.8
	c-3.4,9.3-3.4,19.6,0,29c1.6,4.4,4.1,8.4,7.1,11.8c3.2,3.4,7,6.2,11.3,7.9c9.3,3.9,19.9,3.9,29.2,0c4.3-1.9,8.1-4.5,11.3-7.9
	c3.2-3.5,5.6-7.5,7.2-11.8c3.4-9.3,3.4-19.6,0-29C390.4,200.1,388,196.1,384.8,192.7z M358.9,246.5c-4.5,0.1-8.8-1.2-12.5-3.6
	c-3.7-2.4-6.7-5.9-8.6-9.9c-2-4.3-3.1-9.1-3.1-13.9c-0.1-4.8,1-9.6,3.1-13.9c1.9-4.1,4.9-7.5,8.6-9.9c7.6-4.9,17.4-4.9,25.1,0
	c3.7,2.4,6.7,5.9,8.6,9.9c2,4.4,3.1,9.1,3.1,13.9c0.1,4.8-1,9.6-3.1,13.9c-1.9,4.1-4.9,7.5-8.6,9.9
	C367.7,245.2,363.3,246.5,358.9,246.5z"/>
<path d="M428.8,203.1c-2.2,0-4.4,0.3-6.5,1.1c-1.9,0.6-3.6,1.5-5.3,2.7c-1.2,0.9-2.4,1.9-3.5,3c-0.6,0.6-1.1,1.1-1.5,1.7V204h-10.7
	v51.6h10.6v-26.4c0-2.4,0.4-4.9,1.4-7.1c0.7-1.9,1.9-3.7,3.5-5.1c1.4-1.2,2.9-2.3,4.6-2.9c1.6-0.6,3.3-1,5-1.1c3-0.2,5.8,1,7.9,3.1
	c1.9,2.1,3,5.6,3,10.5v29H448v-29.9C448.1,210.6,441.6,203.1,428.8,203.1z"/>
<path d="M503.9,232.6c0.2-1.2,0.3-2.4,0.3-3.6c0-3.2-0.5-6.6-1.5-9.7c-0.8-2.7-2-5.1-3.7-7.4c-1.5-1.9-3.4-3.6-5.5-5
	c-2-1.3-4.2-2.3-6.6-2.9c-2.3-0.6-4.7-0.9-7.1-0.9c-7.5,0-13.8,2.5-18.6,7.5s-7.1,11.4-7.1,19.1c-0.1,4.6,1,9.2,3,13.4
	c2,4,5.1,7.3,9,9.7c4.2,2.4,9,3.7,13.9,3.6c2.6,0,5.1-0.3,7.6-1.1c2.1-0.6,4.1-1.5,6-2.7c1.7-1.1,3.2-2.4,4.5-3.8
	c1.2-1.3,2.4-2.8,3.2-4.3c0.8-1.4,1.5-2.8,2.1-4.4l0.2-0.4l-10.1-2.7l-0.2,0.3c-1.1,2.6-2.9,4.9-5.2,6.7c-2.4,1.7-5.2,2.6-8,2.5
	c-4.5,0-8.1-1.3-10.9-4c-2.7-2.5-4.4-5.9-4.7-9.6h39.1L503.9,232.6z M465.4,224c1.9-7.6,7-11.5,15-11.5c3.3-0.1,6.5,1.1,8.9,3.3
	c2.3,2.1,3.6,5,3.9,8.1L465.4,224z"/>
<path d="M181.5,207.2c-3,0.9-6.2,0.9-9.2,0l-0.7-0.2v48.9h10.5V207L181.5,207.2z"/>
<path d="M177,185.3c-1.9-0.1-3.7,0.6-5.1,2c-1.3,1.4-2,3.2-1.9,5c-0.1,1.9,0.6,3.7,1.9,5c2.8,2.8,7.4,2.8,10.2,0
	c1.3-1.4,2-3.2,1.9-5c0.1-1.9-0.6-3.6-1.9-5C180.8,186,178.9,185.2,177,185.3z"/>
<path d="M209,189.4h-9.6v0.2c0,14.2-9.6,16.8-10.7,17.1l-0.3,0.1v7.1h9.5v23.9c-0.1,2.8,0.3,5.4,1.1,8.1c0.6,2,1.5,3.9,2.8,5.5
	c1.1,1.4,2.6,2.5,4.1,3.3s3.2,1.3,4.9,1.6c4.3,0.6,8.7,0.5,12.9-0.4l0.3-0.1v-10.3l-0.2,0.1c-0.1,0-7.9,2.3-12.1-0.9
	c-1.8-1.4-2.7-3.5-2.7-6.3v-24.6h15v-9.5h-15V189.4z"/>
<path d="M307.9,203.9c-3.3,0.6-6.4,2-9.1,4.1c-1.9,1.5-3.6,3.3-4.7,5.5v-9.6h-10.7v51.6h10.7v-25.9c0-2.2,0.4-4.5,1.2-6.5
	c0.7-1.9,1.9-3.5,3.4-4.9c1.5-1.3,3.2-2.3,4.9-3c1.8-0.6,3.6-1,5.5-1h0.6c2.3,0.1,4.5,0.6,6.7,1.3l0.4,0.2l0.1-0.3
	c0.2-3.8,1-7.5,2.1-11.2l0.1-0.2l-0.6-0.2C315,203.2,311.4,203.2,307.9,203.9z"/>
<path class="st0" d="M255,143c38.1,0,69-30.9,69-69S293.1,5,255,5s-69,30.9-69,69S216.9,143,255,143z M217.5,30.1
	c24-20.4,59.9-17.6,80.3,6.3h-86.7C213.1,34.3,215.2,32,217.5,30.1z M311.3,68.8h-40.5c-2.7-0.1-5.6,0.2-8.2,0.8
	c-1.9,0.6-3.7,1.6-5.3,2.7l-0.2,0.1l0,0c-7.3,4.7-14.8,9.7-23.8,12.1c-5.6,1.5-11.3,1.6-16.7,1.6h-1.8H199
	c1.3,5.5,3.4,10.9,6.2,15.7H304c5.1-8.6,7.7-18.5,7.6-28.5c0-1.4-0.1-2.8-0.2-4.2l0,0l0,0l0,0L311.3,68.8z M291.2,86
	c0,5.5-4.5,10-10,10s-10-4.5-10-10s4.5-10,10-10S291.2,80.5,291.2,86z M297.9,110.5c-20.4,23.9-56.4,26.9-80.3,6.3
	c-2.3-2-4.4-4.1-6.3-6.3H297.9z M197.5,73.6c0,1.4,0.1,2.8,0.2,4.2h17.1c5.5,0,11.2,0,16.3-1.4c7.6-2,14.3-6.3,21.4-11l0.2-0.1
	c2.3-1.7,4.8-2.9,7.6-3.8c3.5-0.9,7.1-1.3,10.6-1.3h39.3c-1.3-5.4-3.3-10.5-6.1-15.3h-99C200.1,53.6,197.5,63.5,197.5,73.6z"/>
</svg>
