<?xml version="1.0" encoding="UTF-8"?>
<svg id="Layer_1" data-name="Layer 1" xmlns="http://www.w3.org/2000/svg" xmlns:xlink="http://www.w3.org/1999/xlink" viewBox="0 0 266.18 287.45">
  <defs>
    <style>
      .cls-1 {
        fill: url(#linear-gradient);
      }

      .cls-2 {
        fill: url(#linear-gradient-3);
      }

      .cls-3 {
        fill: url(#linear-gradient-4);
      }

      .cls-4 {
        fill: url(#linear-gradient-2);
      }

      .cls-5 {
        fill: url(#linear-gradient-6);
      }

      .cls-6 {
        fill: url(#linear-gradient-5);
      }
    </style>
    <linearGradient id="linear-gradient" x1="133.09" y1="-136.19" x2="133.09" y2="368.86" gradientUnits="userSpaceOnUse">
      <stop offset=".33" stop-color="#00e4ca"/>
      <stop offset="1" stop-color="#0074fb"/>
    </linearGradient>
    <linearGradient id="linear-gradient-2" x1="133.11" y1="-136.19" x2="133.11" y2="368.86" xlink:href="#linear-gradient"/>
    <linearGradient id="linear-gradient-3" x1="133.11" y1="-136.19" x2="133.11" y2="368.86" xlink:href="#linear-gradient"/>
    <linearGradient id="linear-gradient-4" x1="113.96" y1="-136.19" x2="113.96" y2="368.86" xlink:href="#linear-gradient"/>
    <linearGradient id="linear-gradient-5" x1="113.97" y1="-136.19" x2="113.97" y2="368.86" xlink:href="#linear-gradient"/>
    <linearGradient id="linear-gradient-6" x1="152.3" y1="-136.19" x2="152.3" y2="368.86" xlink:href="#linear-gradient"/>
  </defs>
  <path class="cls-1" d="m258.27,157.81l-36.34-63v-.05l-.05-.05-3.67-6.34s-.09-.14-.14-.18l-33.09-57.39c-8.15-14.14-21.38-24.99-37.2-28.98-26.35-6.65-52.87,5.24-65.84,27.67l-58.97,102.14-15.07,26.16c-10.54,18.24-10.54,40.73,0,59.01,7.4,12.82,19.21,22.18,32.89,26.61,2.07.67,4.33.31,6.08-.97s2.8-3.32,2.8-5.49v-14.72c0-4.62,3.76-8.37,8.37-8.37h.72c4.62,0,8.37,3.76,8.37,8.37v23.62c0,.14-.05.32-.05.45h.05v16.16c0,4.8,3.89,8.69,8.69,8.69h0c4.82,0,8.73-3.91,8.73-8.73v-90.74c0-20.41,12.58-37.83,30.46-45.03-13.26-6.63-22.34-20.23-22.4-36.01-.08-21.57,17.58-39.93,39.14-40.63,22.98-.75,41.87,17.63,41.87,40.48,0,15.84-9.14,29.51-22.4,36.16,17.83,7.2,30.46,24.62,30.46,45.03v90.79c0,4.8,3.89,8.69,8.69,8.69h0c4.82,0,8.73-3.91,8.73-8.73v-16.11h.05c0-.14-.05-.32-.05-.45v-12.17c0-4.62,3.75-8.37,8.37-8.37h.72c4.57,0,8.33,3.76,8.33,8.37v3.25c0,2.17,1.04,4.22,2.8,5.49s4.02,1.64,6.09.96c13.66-4.44,25.44-13.77,32.84-26.59,10.54-18.28,10.54-40.78,0-59.01Zm-191.12,35.8c0,4.82-3.91,8.73-8.73,8.73h0c-4.82,0-8.73-3.91-8.73-8.73v-8.1c0-4.8,3.89-8.69,8.69-8.69h.05c4.82,0,8.73,3.91,8.73,8.73v8.06Zm149.39,12.56c0,4.81-3.9,8.71-8.71,8.71h0c-4.81,0-8.71-3.9-8.71-8.71v-27.43c0-4.81,3.9-8.71,8.71-8.71h0c4.81,0,8.71,3.9,8.71,8.71v27.43Z"/>
  <path class="cls-4" d="m143.54,149.03c0,3.67-1.86,6.83-4.71,8.69v32.99c0,3.17-2.53,5.75-5.7,5.75s-5.75-2.58-5.75-5.75v-32.99c-2.81-1.86-4.71-5.02-4.71-8.69,0-5.75,4.66-10.41,10.45-10.41s10.41,4.66,10.41,10.41Z"/>
  <path class="cls-2" d="m143.54,149.03c0,3.67-1.86,6.83-4.71,8.69v32.99c0,3.17-2.53,5.75-5.7,5.75s-5.75-2.58-5.75-5.75v-32.99c-2.81-1.86-4.71-5.02-4.71-8.69,0-5.75,4.66-10.41,10.45-10.41s10.41,4.66,10.41,10.41Z"/>
  <path class="cls-3" d="m122.67,265.7c0-4.61-3.74-8.34-8.34-8.34h-.74c-4.61,0-8.34,3.74-8.34,8.34v13.03c0,4.81,3.9,8.72,8.72,8.72h0c4.81,0,8.72-3.9,8.72-8.72v-13.03Z"/>
  <path class="cls-6" d="m113.97,214.88c4.81,0,8.71,3.9,8.71,8.71v12.72c0,4.79-3.88,8.67-8.67,8.67h-.09c-4.79,0-8.67-3.88-8.67-8.67v-12.72c0-4.81,3.9-8.71,8.71-8.71h0Z"/>
  <path class="cls-5" d="m152.28,235.97c4.82,0,8.73,3.91,8.73,8.73v33.99c0,4.82-3.91,8.73-8.73,8.73h0c-4.8,0-8.69-3.89-8.69-8.69v-34.08c0-4.8,3.89-8.69,8.69-8.69h0Z"/>
</svg>